<mxfile host="app.diagrams.net" agent="Mozilla/5.0 (Windows NT 10.0; Win64; x64) AppleWebKit/537.36 (KHTML, like Gecko) Chrome/127.0.0.0 Safari/537.36 Edg/127.0.0.0" version="24.7.7">
  <diagram name="Page-1" id="L3JxdP-2ZCi0WRHCpeQN">
    <mxGraphModel dx="786" dy="469" grid="1" gridSize="10" guides="1" tooltips="1" connect="1" arrows="1" fold="1" page="1" pageScale="1" pageWidth="850" pageHeight="1100" math="0" shadow="0">
      <root>
        <mxCell id="0" />
        <mxCell id="1" parent="0" />
        <mxCell id="gGDRxfNEUpkAYpMpV2J8-1" value="&lt;h2&gt;LOAN RECON PROCESS FLOW&lt;/h2&gt;" style="text;strokeColor=none;align=center;fillColor=none;html=1;verticalAlign=middle;whiteSpace=wrap;rounded=0;" vertex="1" parent="1">
          <mxGeometry x="240" y="50" width="350" height="30" as="geometry" />
        </mxCell>
        <mxCell id="gGDRxfNEUpkAYpMpV2J8-2" value="" style="endArrow=none;html=1;rounded=0;" edge="1" parent="1">
          <mxGeometry width="50" height="50" relative="1" as="geometry">
            <mxPoint x="400" y="120" as="sourcePoint" />
            <mxPoint x="400" y="80" as="targetPoint" />
          </mxGeometry>
        </mxCell>
        <mxCell id="gGDRxfNEUpkAYpMpV2J8-3" value="" style="endArrow=none;html=1;rounded=0;exitX=0.063;exitY=1.089;exitDx=0;exitDy=0;exitPerimeter=0;" edge="1" parent="1">
          <mxGeometry width="50" height="50" relative="1" as="geometry">
            <mxPoint x="272.04999999999995" y="79.99999999999996" as="sourcePoint" />
            <mxPoint x="560" y="80" as="targetPoint" />
          </mxGeometry>
        </mxCell>
        <mxCell id="gGDRxfNEUpkAYpMpV2J8-7" value="" style="endArrow=none;html=1;rounded=0;" edge="1" parent="1">
          <mxGeometry width="50" height="50" relative="1" as="geometry">
            <mxPoint x="240" y="120" as="sourcePoint" />
            <mxPoint x="560" y="120" as="targetPoint" />
          </mxGeometry>
        </mxCell>
        <mxCell id="gGDRxfNEUpkAYpMpV2J8-41" value="On Demand" style="edgeLabel;html=1;align=center;verticalAlign=middle;resizable=0;points=[];" vertex="1" connectable="0" parent="gGDRxfNEUpkAYpMpV2J8-7">
          <mxGeometry x="-0.6979" y="2" relative="1" as="geometry">
            <mxPoint as="offset" />
          </mxGeometry>
        </mxCell>
        <mxCell id="gGDRxfNEUpkAYpMpV2J8-42" value="Scheduled" style="edgeLabel;html=1;align=center;verticalAlign=middle;resizable=0;points=[];" vertex="1" connectable="0" parent="gGDRxfNEUpkAYpMpV2J8-7">
          <mxGeometry x="0.6021" y="-3" relative="1" as="geometry">
            <mxPoint as="offset" />
          </mxGeometry>
        </mxCell>
        <mxCell id="gGDRxfNEUpkAYpMpV2J8-8" value="" style="endArrow=classic;html=1;rounded=0;" edge="1" parent="1">
          <mxGeometry width="50" height="50" relative="1" as="geometry">
            <mxPoint x="560" y="120" as="sourcePoint" />
            <mxPoint x="560" y="160" as="targetPoint" />
          </mxGeometry>
        </mxCell>
        <mxCell id="gGDRxfNEUpkAYpMpV2J8-9" value="" style="endArrow=classic;html=1;rounded=0;" edge="1" parent="1" target="gGDRxfNEUpkAYpMpV2J8-10">
          <mxGeometry width="50" height="50" relative="1" as="geometry">
            <mxPoint x="240" y="120" as="sourcePoint" />
            <mxPoint x="240" y="160" as="targetPoint" />
          </mxGeometry>
        </mxCell>
        <mxCell id="gGDRxfNEUpkAYpMpV2J8-28" style="edgeStyle=orthogonalEdgeStyle;rounded=0;orthogonalLoop=1;jettySize=auto;html=1;exitX=0;exitY=0.5;exitDx=0;exitDy=0;" edge="1" parent="1" source="gGDRxfNEUpkAYpMpV2J8-10" target="gGDRxfNEUpkAYpMpV2J8-12">
          <mxGeometry relative="1" as="geometry" />
        </mxCell>
        <mxCell id="gGDRxfNEUpkAYpMpV2J8-10" value="&#xa;&lt;span style=&quot;color: rgb(0, 0, 0); font-family: Helvetica; font-size: 12px; font-style: normal; font-variant-ligatures: normal; font-variant-caps: normal; font-weight: 400; letter-spacing: normal; orphans: 2; text-align: center; text-indent: 0px; text-transform: none; widows: 2; word-spacing: 0px; -webkit-text-stroke-width: 0px; white-space: normal; background-color: rgb(251, 251, 251); text-decoration-thickness: initial; text-decoration-style: initial; text-decoration-color: initial; display: inline !important; float: none;&quot;&gt;Request Current Data&lt;/span&gt;&lt;br style=&quot;forced-color-adjust: none; color: rgb(0, 0, 0); font-family: Helvetica; font-size: 12px; font-style: normal; font-variant-ligatures: normal; font-variant-caps: normal; font-weight: 400; letter-spacing: normal; orphans: 2; text-align: center; text-indent: 0px; text-transform: none; widows: 2; word-spacing: 0px; -webkit-text-stroke-width: 0px; white-space: normal; background-color: rgb(251, 251, 251); text-decoration-thickness: initial; text-decoration-style: initial; text-decoration-color: initial;&quot;&gt;&lt;span style=&quot;color: rgb(0, 0, 0); font-family: Helvetica; font-size: 12px; font-style: normal; font-variant-ligatures: normal; font-variant-caps: normal; font-weight: 400; letter-spacing: normal; orphans: 2; text-align: center; text-indent: 0px; text-transform: none; widows: 2; word-spacing: 0px; -webkit-text-stroke-width: 0px; white-space: normal; background-color: rgb(251, 251, 251); text-decoration-thickness: initial; text-decoration-style: initial; text-decoration-color: initial; display: inline !important; float: none;&quot;&gt;&amp;nbsp;from LIQ&lt;/span&gt;&#xa;&#xa;" style="shape=parallelogram;perimeter=parallelogramPerimeter;whiteSpace=wrap;html=1;fixedSize=1;" vertex="1" parent="1">
          <mxGeometry x="140" y="160" width="200" height="60" as="geometry" />
        </mxCell>
        <mxCell id="gGDRxfNEUpkAYpMpV2J8-25" style="edgeStyle=orthogonalEdgeStyle;rounded=0;orthogonalLoop=1;jettySize=auto;html=1;exitX=1;exitY=0.5;exitDx=0;exitDy=0;" edge="1" parent="1" source="gGDRxfNEUpkAYpMpV2J8-11" target="gGDRxfNEUpkAYpMpV2J8-16">
          <mxGeometry relative="1" as="geometry" />
        </mxCell>
        <mxCell id="gGDRxfNEUpkAYpMpV2J8-11" value="Request Current Data&lt;br&gt;&amp;nbsp;from LIQ" style="shape=parallelogram;perimeter=parallelogramPerimeter;whiteSpace=wrap;html=1;fixedSize=1;" vertex="1" parent="1">
          <mxGeometry x="470" y="160" width="180" height="60" as="geometry" />
        </mxCell>
        <mxCell id="gGDRxfNEUpkAYpMpV2J8-29" value="" style="edgeStyle=orthogonalEdgeStyle;rounded=0;orthogonalLoop=1;jettySize=auto;html=1;" edge="1" parent="1" source="gGDRxfNEUpkAYpMpV2J8-12" target="gGDRxfNEUpkAYpMpV2J8-14">
          <mxGeometry relative="1" as="geometry" />
        </mxCell>
        <mxCell id="gGDRxfNEUpkAYpMpV2J8-30" style="edgeStyle=orthogonalEdgeStyle;rounded=0;orthogonalLoop=1;jettySize=auto;html=1;exitX=0.5;exitY=0;exitDx=0;exitDy=0;entryX=0.5;entryY=1;entryDx=0;entryDy=0;" edge="1" parent="1" source="gGDRxfNEUpkAYpMpV2J8-12" target="gGDRxfNEUpkAYpMpV2J8-14">
          <mxGeometry relative="1" as="geometry" />
        </mxCell>
        <mxCell id="gGDRxfNEUpkAYpMpV2J8-43" value="NO" style="edgeLabel;html=1;align=center;verticalAlign=middle;resizable=0;points=[];" vertex="1" connectable="0" parent="gGDRxfNEUpkAYpMpV2J8-30">
          <mxGeometry x="0.2111" y="3" relative="1" as="geometry">
            <mxPoint as="offset" />
          </mxGeometry>
        </mxCell>
        <mxCell id="gGDRxfNEUpkAYpMpV2J8-12" value="Data&lt;br&gt;Received" style="rhombus;whiteSpace=wrap;html=1;" vertex="1" parent="1">
          <mxGeometry x="40" y="150" width="80" height="80" as="geometry" />
        </mxCell>
        <mxCell id="gGDRxfNEUpkAYpMpV2J8-13" value="&#xa;&lt;span style=&quot;color: rgb(0, 0, 0); font-family: Helvetica; font-size: 12px; font-style: normal; font-variant-ligatures: normal; font-variant-caps: normal; font-weight: 400; letter-spacing: normal; orphans: 2; text-align: center; text-indent: 0px; text-transform: none; widows: 2; word-spacing: 0px; -webkit-text-stroke-width: 0px; white-space: normal; background-color: rgb(251, 251, 251); text-decoration-thickness: initial; text-decoration-style: initial; text-decoration-color: initial; display: inline !important; float: none;&quot;&gt;Log Error to Kibana&lt;/span&gt;&lt;br style=&quot;forced-color-adjust: none; color: rgb(0, 0, 0); font-family: Helvetica; font-size: 12px; font-style: normal; font-variant-ligatures: normal; font-variant-caps: normal; font-weight: 400; letter-spacing: normal; orphans: 2; text-align: center; text-indent: 0px; text-transform: none; widows: 2; word-spacing: 0px; -webkit-text-stroke-width: 0px; white-space: normal; background-color: rgb(251, 251, 251); text-decoration-thickness: initial; text-decoration-style: initial; text-decoration-color: initial;&quot;&gt;&lt;span style=&quot;color: rgb(0, 0, 0); font-family: Helvetica; font-size: 12px; font-style: normal; font-variant-ligatures: normal; font-variant-caps: normal; font-weight: 400; letter-spacing: normal; orphans: 2; text-align: center; text-indent: 0px; text-transform: none; widows: 2; word-spacing: 0px; -webkit-text-stroke-width: 0px; white-space: normal; background-color: rgb(251, 251, 251); text-decoration-thickness: initial; text-decoration-style: initial; text-decoration-color: initial; display: inline !important; float: none;&quot;&gt;Send Exception EMAIL&lt;/span&gt;&#xa;&#xa;" style="rounded=0;whiteSpace=wrap;html=1;" vertex="1" parent="1">
          <mxGeometry x="660" y="30" width="120" height="60" as="geometry" />
        </mxCell>
        <mxCell id="gGDRxfNEUpkAYpMpV2J8-14" value="Log Error to Kibana&lt;br&gt;Send Exception EMAIL" style="rounded=0;whiteSpace=wrap;html=1;" vertex="1" parent="1">
          <mxGeometry x="20" y="30" width="120" height="60" as="geometry" />
        </mxCell>
        <mxCell id="gGDRxfNEUpkAYpMpV2J8-34" style="edgeStyle=orthogonalEdgeStyle;rounded=0;orthogonalLoop=1;jettySize=auto;html=1;exitX=0.5;exitY=1;exitDx=0;exitDy=0;entryX=0.5;entryY=0;entryDx=0;entryDy=0;" edge="1" parent="1" source="gGDRxfNEUpkAYpMpV2J8-15" target="gGDRxfNEUpkAYpMpV2J8-22">
          <mxGeometry relative="1" as="geometry" />
        </mxCell>
        <mxCell id="gGDRxfNEUpkAYpMpV2J8-15" value="Compare Current Data&lt;br&gt;With Yesterday Data in&lt;br&gt;Staging" style="shape=parallelogram;perimeter=parallelogramPerimeter;whiteSpace=wrap;html=1;fixedSize=1;" vertex="1" parent="1">
          <mxGeometry x="120" y="290" width="200" height="60" as="geometry" />
        </mxCell>
        <mxCell id="gGDRxfNEUpkAYpMpV2J8-26" style="edgeStyle=orthogonalEdgeStyle;rounded=0;orthogonalLoop=1;jettySize=auto;html=1;exitX=0.5;exitY=0;exitDx=0;exitDy=0;entryX=0.5;entryY=1;entryDx=0;entryDy=0;" edge="1" parent="1" source="gGDRxfNEUpkAYpMpV2J8-16" target="gGDRxfNEUpkAYpMpV2J8-13">
          <mxGeometry relative="1" as="geometry" />
        </mxCell>
        <mxCell id="gGDRxfNEUpkAYpMpV2J8-45" value="NO" style="edgeLabel;html=1;align=center;verticalAlign=middle;resizable=0;points=[];" vertex="1" connectable="0" parent="gGDRxfNEUpkAYpMpV2J8-26">
          <mxGeometry x="-0.3556" y="1" relative="1" as="geometry">
            <mxPoint as="offset" />
          </mxGeometry>
        </mxCell>
        <mxCell id="gGDRxfNEUpkAYpMpV2J8-27" style="edgeStyle=orthogonalEdgeStyle;rounded=0;orthogonalLoop=1;jettySize=auto;html=1;exitX=0.5;exitY=1;exitDx=0;exitDy=0;entryX=0.5;entryY=0;entryDx=0;entryDy=0;" edge="1" parent="1" source="gGDRxfNEUpkAYpMpV2J8-16" target="gGDRxfNEUpkAYpMpV2J8-17">
          <mxGeometry relative="1" as="geometry" />
        </mxCell>
        <mxCell id="gGDRxfNEUpkAYpMpV2J8-46" value="YES" style="edgeLabel;html=1;align=center;verticalAlign=middle;resizable=0;points=[];" vertex="1" connectable="0" parent="gGDRxfNEUpkAYpMpV2J8-27">
          <mxGeometry x="0.0222" relative="1" as="geometry">
            <mxPoint as="offset" />
          </mxGeometry>
        </mxCell>
        <mxCell id="gGDRxfNEUpkAYpMpV2J8-16" value="Data&lt;br&gt;Received" style="rhombus;whiteSpace=wrap;html=1;" vertex="1" parent="1">
          <mxGeometry x="680" y="150" width="80" height="80" as="geometry" />
        </mxCell>
        <mxCell id="gGDRxfNEUpkAYpMpV2J8-32" style="edgeStyle=orthogonalEdgeStyle;rounded=0;orthogonalLoop=1;jettySize=auto;html=1;" edge="1" parent="1" source="gGDRxfNEUpkAYpMpV2J8-17" target="gGDRxfNEUpkAYpMpV2J8-18">
          <mxGeometry relative="1" as="geometry">
            <Array as="points">
              <mxPoint x="720" y="410" />
              <mxPoint x="600" y="410" />
            </Array>
          </mxGeometry>
        </mxCell>
        <mxCell id="gGDRxfNEUpkAYpMpV2J8-17" value="&lt;br&gt;Wipe out Staging&lt;br&gt;And Store Newly Retrieved&lt;br&gt;Data" style="shape=parallelogram;perimeter=parallelogramPerimeter;whiteSpace=wrap;html=1;fixedSize=1;" vertex="1" parent="1">
          <mxGeometry x="620" y="290" width="200" height="60" as="geometry" />
        </mxCell>
        <mxCell id="gGDRxfNEUpkAYpMpV2J8-18" value="" style="shape=cylinder3;whiteSpace=wrap;html=1;boundedLbl=1;backgroundOutline=1;size=15;" vertex="1" parent="1">
          <mxGeometry x="560" y="470" width="60" height="80" as="geometry" />
        </mxCell>
        <mxCell id="gGDRxfNEUpkAYpMpV2J8-52" style="edgeStyle=orthogonalEdgeStyle;rounded=0;orthogonalLoop=1;jettySize=auto;html=1;exitX=1;exitY=0.75;exitDx=0;exitDy=0;" edge="1" parent="1" source="gGDRxfNEUpkAYpMpV2J8-20">
          <mxGeometry relative="1" as="geometry">
            <mxPoint x="530" y="610" as="targetPoint" />
            <Array as="points">
              <mxPoint x="530" y="428" />
            </Array>
          </mxGeometry>
        </mxCell>
        <mxCell id="gGDRxfNEUpkAYpMpV2J8-20" value="Generate DIFF CSV&lt;br&gt;And Guids" style="shape=parallelogram;perimeter=parallelogramPerimeter;whiteSpace=wrap;html=1;fixedSize=1;" vertex="1" parent="1">
          <mxGeometry x="370" y="400" width="160" height="40" as="geometry" />
        </mxCell>
        <mxCell id="gGDRxfNEUpkAYpMpV2J8-21" value="Store Diff With&lt;br&gt;&amp;nbsp;GUID &amp;nbsp;" style="shape=parallelogram;perimeter=parallelogramPerimeter;whiteSpace=wrap;html=1;fixedSize=1;" vertex="1" parent="1">
          <mxGeometry x="350" y="510" width="160" height="50" as="geometry" />
        </mxCell>
        <mxCell id="gGDRxfNEUpkAYpMpV2J8-24" style="edgeStyle=orthogonalEdgeStyle;rounded=0;orthogonalLoop=1;jettySize=auto;html=1;entryX=0.5;entryY=0;entryDx=0;entryDy=0;" edge="1" parent="1" source="gGDRxfNEUpkAYpMpV2J8-22">
          <mxGeometry relative="1" as="geometry">
            <mxPoint x="210" y="560" as="targetPoint" />
          </mxGeometry>
        </mxCell>
        <mxCell id="gGDRxfNEUpkAYpMpV2J8-49" value="NO" style="edgeLabel;html=1;align=center;verticalAlign=middle;resizable=0;points=[];" vertex="1" connectable="0" parent="gGDRxfNEUpkAYpMpV2J8-24">
          <mxGeometry x="-0.0533" relative="1" as="geometry">
            <mxPoint as="offset" />
          </mxGeometry>
        </mxCell>
        <mxCell id="gGDRxfNEUpkAYpMpV2J8-35" style="edgeStyle=orthogonalEdgeStyle;rounded=0;orthogonalLoop=1;jettySize=auto;html=1;entryX=0;entryY=0.5;entryDx=0;entryDy=0;" edge="1" parent="1" source="gGDRxfNEUpkAYpMpV2J8-22" target="gGDRxfNEUpkAYpMpV2J8-20">
          <mxGeometry relative="1" as="geometry">
            <Array as="points">
              <mxPoint x="280" y="420" />
              <mxPoint x="280" y="420" />
            </Array>
          </mxGeometry>
        </mxCell>
        <mxCell id="gGDRxfNEUpkAYpMpV2J8-50" value="YES" style="edgeLabel;html=1;align=center;verticalAlign=middle;resizable=0;points=[];" vertex="1" connectable="0" parent="gGDRxfNEUpkAYpMpV2J8-35">
          <mxGeometry x="-0.2308" y="-1" relative="1" as="geometry">
            <mxPoint as="offset" />
          </mxGeometry>
        </mxCell>
        <mxCell id="gGDRxfNEUpkAYpMpV2J8-22" value="Found Diff?" style="rhombus;whiteSpace=wrap;html=1;" vertex="1" parent="1">
          <mxGeometry x="170" y="380" width="80" height="80" as="geometry" />
        </mxCell>
        <mxCell id="gGDRxfNEUpkAYpMpV2J8-31" style="edgeStyle=orthogonalEdgeStyle;rounded=0;orthogonalLoop=1;jettySize=auto;html=1;exitX=0.5;exitY=1;exitDx=0;exitDy=0;entryX=0.443;entryY=0.056;entryDx=0;entryDy=0;entryPerimeter=0;" edge="1" parent="1" source="gGDRxfNEUpkAYpMpV2J8-12" target="gGDRxfNEUpkAYpMpV2J8-15">
          <mxGeometry relative="1" as="geometry" />
        </mxCell>
        <mxCell id="gGDRxfNEUpkAYpMpV2J8-44" value="YES" style="edgeLabel;html=1;align=center;verticalAlign=middle;resizable=0;points=[];" vertex="1" connectable="0" parent="gGDRxfNEUpkAYpMpV2J8-31">
          <mxGeometry x="-0.2255" y="-5" relative="1" as="geometry">
            <mxPoint as="offset" />
          </mxGeometry>
        </mxCell>
        <mxCell id="gGDRxfNEUpkAYpMpV2J8-37" style="edgeStyle=orthogonalEdgeStyle;rounded=0;orthogonalLoop=1;jettySize=auto;html=1;entryX=0;entryY=0.75;entryDx=0;entryDy=0;" edge="1" parent="1" target="gGDRxfNEUpkAYpMpV2J8-21">
          <mxGeometry relative="1" as="geometry">
            <mxPoint x="270" y="420" as="sourcePoint" />
            <mxPoint x="350" y="440" as="targetPoint" />
            <Array as="points">
              <mxPoint x="320" y="420" />
              <mxPoint x="320" y="547" />
            </Array>
          </mxGeometry>
        </mxCell>
        <mxCell id="gGDRxfNEUpkAYpMpV2J8-40" value="" style="endArrow=classic;html=1;rounded=0;entryX=1;entryY=0.5;entryDx=0;entryDy=0;dashed=1;dashPattern=8 8;" edge="1" parent="1" target="gGDRxfNEUpkAYpMpV2J8-15">
          <mxGeometry width="50" height="50" relative="1" as="geometry">
            <mxPoint x="580" y="470" as="sourcePoint" />
            <mxPoint x="630" y="420" as="targetPoint" />
            <Array as="points">
              <mxPoint x="580" y="320" />
            </Array>
          </mxGeometry>
        </mxCell>
        <mxCell id="gGDRxfNEUpkAYpMpV2J8-47" style="edgeStyle=orthogonalEdgeStyle;rounded=0;orthogonalLoop=1;jettySize=auto;html=1;entryX=0;entryY=1;entryDx=0;entryDy=-15;entryPerimeter=0;" edge="1" parent="1" source="gGDRxfNEUpkAYpMpV2J8-21" target="gGDRxfNEUpkAYpMpV2J8-18">
          <mxGeometry relative="1" as="geometry" />
        </mxCell>
        <mxCell id="gGDRxfNEUpkAYpMpV2J8-53" value="End Process With&lt;br&gt;EMAIL" style="ellipse;whiteSpace=wrap;html=1;" vertex="1" parent="1">
          <mxGeometry x="150" y="560" width="120" height="80" as="geometry" />
        </mxCell>
        <mxCell id="gGDRxfNEUpkAYpMpV2J8-54" value="Send CSV&amp;nbsp;&lt;br&gt;To ClearPar" style="ellipse;whiteSpace=wrap;html=1;aspect=fixed;" vertex="1" parent="1">
          <mxGeometry x="490" y="610" width="80" height="80" as="geometry" />
        </mxCell>
      </root>
    </mxGraphModel>
  </diagram>
</mxfile>
